ply
format ascii 1.0
comment Created by Blender 2.79 (sub 0) - www.blender.org, source file: 'LeapModel.blend'
element vertex 120
property float x
property float y
property float z
property float nx
property float ny
property float nz
element face 140
property list uchar uint vertex_indices
end_header
-0.067756 -0.037143 0.013238 -0.056795 -0.721702 0.689840
-0.067756 -0.037143 -0.009881 -0.056795 -0.721702 -0.689840
0.062661 -0.037143 -0.009881 0.056795 -0.721702 -0.689840
0.062661 -0.037143 0.013238 0.056795 -0.721702 0.689840
0.077452 0.004420 -0.009881 0.721702 0.056795 -0.689840
0.077452 0.004420 0.013238 0.721702 0.056795 0.689840
0.077452 -0.022351 0.013238 0.721702 -0.056795 0.689840
0.077452 -0.022351 -0.009881 0.721702 -0.056795 -0.689840
0.067231 0.018488 0.013238 0.228401 0.702963 0.673513
0.062661 0.019212 0.013238 0.056795 0.721702 0.689840
0.060285 0.016130 0.013238 -0.050081 -0.688162 0.723808
0.064689 0.015485 0.013238 -0.193548 -0.642170 0.741691
-0.082548 -0.022351 -0.009881 -0.721702 -0.056795 -0.689840
-0.082548 -0.022351 0.013238 -0.721702 -0.056795 0.689840
-0.082548 0.004420 0.013238 -0.721702 0.056795 0.689840
-0.082548 0.004420 -0.009881 -0.721702 0.056795 -0.689840
-0.067756 0.019212 -0.009881 -0.056795 0.721702 -0.689840
-0.067756 0.019212 0.013238 -0.056795 0.721702 0.689840
0.062661 0.019212 -0.009881 0.056795 0.721702 -0.689840
-0.072327 -0.036419 0.013238 -0.228401 -0.702963 0.673513
-0.072327 -0.036419 -0.009881 -0.228401 -0.702963 -0.673513
-0.076450 -0.034318 0.013238 -0.434462 -0.597980 0.673513
-0.076450 -0.034318 -0.009881 -0.434462 -0.597980 -0.673513
-0.079723 -0.031045 0.013238 -0.597980 -0.434462 0.673513
-0.079723 -0.031045 -0.009881 -0.597980 -0.434462 -0.673513
-0.081824 -0.026922 0.013238 -0.702963 -0.228401 0.673513
-0.081824 -0.026922 -0.009881 -0.702963 -0.228401 -0.673513
-0.072327 0.018488 -0.009881 -0.228401 0.702963 -0.673513
-0.072327 0.018488 0.013238 -0.228401 0.702963 0.673513
-0.076450 0.016387 -0.009881 -0.434462 0.597980 -0.673513
-0.076450 0.016387 0.013238 -0.434462 0.597980 0.673513
-0.079723 0.013114 -0.009881 -0.597980 0.434462 -0.673513
-0.079723 0.013114 0.013238 -0.597980 0.434462 0.673513
-0.081824 0.008991 -0.009881 -0.702963 0.228401 -0.673513
-0.081824 0.008991 0.013238 -0.702963 0.228401 0.673513
0.076728 0.008991 -0.009881 0.702963 0.228401 -0.673513
0.076728 0.008991 0.013238 0.702963 0.228401 0.673513
0.074627 0.013115 -0.009881 0.597980 0.434462 -0.673513
0.074627 0.013115 0.013238 0.597980 0.434462 0.673513
0.071355 0.016387 -0.009881 0.434462 0.597980 -0.673513
0.071355 0.016387 0.013238 0.434462 0.597980 0.673513
0.067231 0.018488 -0.009881 0.228401 0.702963 -0.673513
0.067231 -0.036419 -0.009881 0.228401 -0.702963 -0.673513
0.067231 -0.036419 0.013238 0.228401 -0.702963 0.673513
0.071355 -0.034318 -0.009881 0.434462 -0.597980 -0.673513
0.071355 -0.034318 0.013238 0.434462 -0.597980 0.673513
0.074627 -0.031045 -0.009881 0.597980 -0.434462 -0.673513
0.074627 -0.031045 0.013238 0.597980 -0.434462 0.673513
0.076728 -0.026922 -0.009881 0.702963 -0.228401 -0.673513
0.076728 -0.026922 0.013238 0.702963 -0.228401 0.673513
0.074538 0.002956 0.013238 -0.684469 -0.058199 0.726676
0.073840 0.007027 0.013238 -0.627979 -0.219855 0.746513
0.073840 0.007027 0.010442 -0.292795 -0.068667 0.953673
0.074538 0.002956 0.010442 -0.236366 0.001801 0.971648
-0.073758 -0.031545 0.013238 0.374035 0.554918 0.743065
-0.076911 -0.028630 0.013238 0.525285 0.411298 0.744896
-0.076911 0.010699 0.013238 0.525315 -0.411298 0.744896
-0.073758 0.013614 0.013238 0.374035 -0.554918 0.743065
-0.069785 0.015485 0.013238 0.193548 -0.642170 0.741691
-0.065381 0.016130 0.013238 0.050081 -0.688162 0.723808
-0.079633 -0.020887 0.013238 0.684469 0.058199 0.726676
-0.079633 0.002956 0.013238 0.684469 -0.058199 0.726676
0.074538 -0.020887 0.013238 -0.684469 0.058199 0.726676
0.073840 -0.024958 0.013238 -0.627979 0.219855 0.746513
-0.065381 -0.034061 0.013238 0.050081 0.688162 0.723808
-0.069785 -0.033416 0.013238 0.193548 0.642170 0.741691
0.068663 0.013614 0.013238 -0.374035 -0.554918 0.743065
0.071816 0.010699 0.013238 -0.525285 -0.411298 0.744896
0.060285 -0.034060 0.013238 -0.050081 0.688162 0.723808
0.071816 -0.028630 0.013238 -0.525315 0.411298 0.744896
0.068663 -0.031545 0.013238 -0.374035 0.554918 0.743065
0.064689 -0.033416 0.013238 -0.193548 0.642170 0.741691
-0.078936 -0.024958 0.013238 0.627979 0.219855 0.746513
-0.078936 0.007027 0.013238 0.627979 -0.219855 0.746513
-0.065381 -0.034061 0.010442 -0.006409 0.237312 0.971404
0.060285 -0.034060 0.010442 0.006409 0.237312 0.971404
0.059392 -0.032920 0.013379 0.034455 -0.574755 0.817560
-0.064488 -0.032920 0.013379 -0.034455 -0.574755 0.817560
-0.076911 -0.028630 0.010442 0.253609 0.177496 0.950865
-0.078936 -0.024958 0.010442 0.292795 0.068667 0.953703
0.073840 -0.024958 0.010442 -0.292795 0.068667 0.953703
0.071816 -0.028630 0.010442 -0.253609 0.177496 0.950865
0.071816 0.010699 0.010442 -0.253609 -0.177496 0.950865
-0.079633 -0.020887 0.010442 0.236366 -0.001801 0.971648
0.074538 -0.020887 0.010442 -0.236366 -0.001801 0.971648
0.068663 0.013614 0.010442 -0.170598 -0.256600 0.951323
-0.069785 0.015485 0.010442 0.061007 -0.290231 0.954985
-0.065381 0.016130 0.010442 -0.006409 -0.237312 0.971404
-0.079633 0.002956 0.010442 0.236366 0.001801 0.971648
0.064689 0.015485 0.010442 -0.061007 -0.290231 0.954985
-0.073758 0.013614 0.010442 0.170598 -0.256600 0.951323
0.060285 0.016130 0.010442 0.006409 -0.237312 0.971404
-0.076911 0.010699 0.010442 0.253609 -0.177496 0.950865
-0.069785 -0.033416 0.010442 0.061007 0.290231 0.954985
0.064689 -0.033416 0.010442 -0.061007 0.290231 0.954985
-0.078936 0.007027 0.010442 0.292795 -0.068667 0.953703
-0.073758 -0.031545 0.010442 0.170598 0.256600 0.951323
0.068663 -0.031545 0.010442 -0.170598 0.256600 0.951323
0.073442 -0.020345 0.013379 0.583819 -0.045747 0.810572
0.073442 0.002414 0.013379 0.583819 0.045747 0.810572
0.072755 0.006300 0.013379 0.556536 0.190497 0.808649
0.070759 0.009806 0.013379 0.448683 0.355327 0.819971
0.067651 0.012588 0.013379 0.309763 0.475112 0.823573
0.063734 0.014374 0.013379 0.154149 0.555254 0.817255
0.059392 0.014989 0.013379 0.034455 0.574755 0.817560
-0.064488 0.014989 0.013379 -0.034455 0.574755 0.817560
-0.068829 0.014374 0.013379 -0.154149 0.555254 0.817255
-0.072746 0.012588 0.013379 -0.309763 0.475112 0.823573
-0.075855 0.009806 0.013379 -0.448683 0.355327 0.819971
-0.077850 0.006300 0.013379 -0.556566 0.190497 0.808649
-0.078538 0.002414 0.013379 -0.583819 0.045747 0.810572
-0.078538 -0.020345 0.013379 -0.583819 -0.045747 0.810572
-0.077850 -0.024231 0.013379 -0.556536 -0.190497 0.808649
-0.075855 -0.027736 0.013379 -0.448683 -0.355327 0.819971
-0.072746 -0.030518 0.013379 -0.309763 -0.475112 0.823573
-0.068829 -0.032305 0.013379 -0.154149 -0.555254 0.817255
0.063734 -0.032304 0.013379 0.154149 -0.555254 0.817255
0.067651 -0.030518 0.013379 0.309763 -0.475112 0.823573
0.070759 -0.027736 0.013379 0.448683 -0.355327 0.819971
0.072755 -0.024231 0.013379 0.556566 -0.190497 0.808649
4 0 1 2 3
4 4 5 6 7
4 8 9 10 11
4 12 13 14 15
4 16 17 9 18
4 1 0 19 20
4 20 19 21 22
4 22 21 23 24
4 24 23 25 26
4 26 25 13 12
4 17 16 27 28
4 28 27 29 30
4 30 29 31 32
4 32 31 33 34
4 34 33 15 14
4 5 4 35 36
4 36 35 37 38
4 38 37 39 40
4 40 39 41 8
4 8 41 18 9
4 3 2 42 43
4 43 42 44 45
4 45 44 46 47
4 47 46 48 49
4 49 48 7 6
3 12 15 33
3 33 31 29
3 29 27 16
3 16 18 41
3 41 39 37
3 37 35 4
3 4 7 48
3 48 46 44
3 44 42 2
3 2 1 20
3 20 22 24
3 24 26 12
3 12 33 29
3 29 16 41
3 41 37 4
3 4 48 44
3 44 2 20
3 20 24 12
3 12 29 41
3 41 4 44
3 44 20 12
3 41 44 12
4 50 51 52 53
4 23 21 54 55
4 30 32 56 57
4 17 28 58 59
4 14 13 60 61
4 49 6 62 63
4 19 0 64 65
4 38 40 66 67
4 0 3 68 64
4 5 36 51 50
4 45 47 69 70
4 6 5 50 62
4 3 43 71 68
4 25 23 55 72
4 32 34 73 56
4 9 17 59 10
4 40 8 11 66
4 21 19 65 54
4 28 30 57 58
4 47 49 63 69
4 36 38 67 51
4 13 25 72 60
4 34 14 61 73
4 43 45 70 71
4 74 75 76 77
4 72 55 78 79
4 69 63 80 81
4 51 67 82 52
4 60 72 79 83
4 63 62 84 80
4 67 66 85 82
4 59 58 86 87
4 61 60 83 88
4 66 11 89 85
4 58 57 90 86
4 64 68 75 74
4 11 10 91 89
4 57 56 92 90
4 62 50 53 84
4 65 64 74 93
4 68 71 94 75
4 56 73 95 92
4 10 59 87 91
4 54 65 93 96
4 71 70 97 94
4 73 61 88 95
4 55 54 96 78
4 70 69 81 97
3 98 99 100
3 100 101 102
3 102 103 104
3 104 105 106
3 106 107 108
3 108 109 110
3 110 111 112
3 112 113 114
3 114 115 77
3 77 76 116
3 116 117 118
3 118 119 98
3 98 100 102
3 102 104 106
3 106 108 110
3 110 112 114
3 114 77 116
3 116 118 98
3 98 102 106
3 106 110 114
3 114 116 98
3 106 114 98
4 89 91 104 103
4 90 92 108 107
4 84 53 99 98
4 93 74 77 115
4 75 94 116 76
4 92 95 109 108
4 91 87 105 104
4 96 93 115 114
4 94 97 117 116
4 95 88 110 109
4 78 96 114 113
4 97 81 118 117
4 53 52 100 99
4 79 78 113 112
4 81 80 119 118
4 52 82 101 100
4 83 79 112 111
4 80 84 98 119
4 82 85 102 101
4 87 86 106 105
4 88 83 111 110
4 85 89 103 102
4 86 90 107 106
