# Blender v2.67 (sub 0) OBJ File: ''
# www.blender.org
o Cone
v 0.000000 0.500000 -0.500000
v 0.000000 0.000000 0.500000
v 0.097545 0.490393 -0.500000
v 0.191342 0.461940 -0.500000
v 0.277785 0.415735 -0.500000
v 0.353553 0.353553 -0.500000
v 0.415735 0.277785 -0.500000
v 0.461940 0.191342 -0.500000
v 0.490393 0.097545 -0.500000
v 0.500000 -0.000000 -0.500000
v 0.490393 -0.097545 -0.500000
v 0.461940 -0.191342 -0.500000
v 0.415735 -0.277785 -0.500000
v 0.353553 -0.353553 -0.500000
v 0.277785 -0.415735 -0.500000
v 0.191342 -0.461940 -0.500000
v 0.097545 -0.490393 -0.500000
v -0.000000 -0.500000 -0.500000
v -0.097545 -0.490393 -0.500000
v -0.191342 -0.461940 -0.500000
v -0.277785 -0.415735 -0.500000
v -0.353554 -0.353553 -0.500000
v -0.415735 -0.277785 -0.500000
v -0.461940 -0.191341 -0.500000
v -0.490393 -0.097545 -0.500000
v -0.500000 0.000000 -0.500000
v -0.490393 0.097546 -0.500000
v -0.461940 0.191342 -0.500000
v -0.415734 0.277786 -0.500000
v -0.353553 0.353554 -0.500000
v -0.277785 0.415735 -0.500000
v -0.191341 0.461940 -0.500000
v -0.097544 0.490393 -0.500000
vn -0.330668 0.798334 -0.503281
vn 0.000000 0.000000 1.000000
vn -0.168554 0.847499 -0.503281
vn 0.000000 0.864101 -0.503281
vn 0.168554 0.847499 -0.503281
vn 0.330668 0.798334 -0.503281
vn -0.480056 0.718467 -0.503281
vn -0.611011 0.611011 -0.503281
vn -0.718467 0.480056 -0.503281
vn -0.798334 0.330668 -0.503281
vn -0.847499 0.168554 -0.503281
vn -0.864101 0.000000 -0.503281
vn -0.847499 -0.168554 -0.503281
vn -0.798334 -0.330668 -0.503281
vn -0.718467 -0.480056 -0.503281
vn -0.611011 -0.611011 -0.503281
vn -0.480056 -0.718467 -0.503281
vn -0.330668 -0.798334 -0.503281
vn -0.168554 -0.847499 -0.503281
vn 0.000000 -0.864101 -0.503281
vn 0.168554 -0.847499 -0.503281
vn 0.330668 -0.798334 -0.503281
vn 0.480056 -0.718467 -0.503281
vn 0.611011 -0.611011 -0.503281
vn 0.718467 -0.480056 -0.503281
vn 0.798334 -0.330668 -0.503281
vn 0.847499 -0.168554 -0.503281
vn 0.864101 0.000000 -0.503281
vn 0.847499 0.168554 -0.503281
vn 0.798334 0.330668 -0.503281
vn 0.718467 0.480056 -0.503281
vn 0.611011 0.611011 -0.503281
vn 0.480056 0.718467 -0.503281
s 1
f 32//1 2//2 33//3
f 1//4 2//2 3//5
f 33//3 2//2 1//4
f 3//5 2//2 4//6
f 31//7 2//2 32//1
f 30//8 2//2 31//7
f 29//9 2//2 30//8
f 28//10 2//2 29//9
f 27//11 2//2 28//10
f 26//12 2//2 27//11
f 25//13 2//2 26//12
f 24//14 2//2 25//13
f 23//15 2//2 24//14
f 22//16 2//2 23//15
f 21//17 2//2 22//16
f 20//18 2//2 21//17
f 19//19 2//2 20//18
f 18//20 2//2 19//19
f 17//21 2//2 18//20
f 16//22 2//2 17//21
f 15//23 2//2 16//22
f 14//24 2//2 15//23
f 13//25 2//2 14//24
f 12//26 2//2 13//25
f 11//27 2//2 12//26
f 10//28 2//2 11//27
f 9//29 2//2 10//28
f 8//30 2//2 9//29
f 7//31 2//2 8//30
f 6//32 2//2 7//31
f 5//33 2//2 6//32
f 4//6 2//2 5//33
f 1//4 3//5 4//6 5//33 6//32 7//31 8//30 9//29 10//28 11//27 12//26 13//25 14//24 15//23 16//22 17//21 18//20 19//19 20//18 21//17 22//16 23//15 24//14 25//13 26//12 27//11 28//10 29//9 30//8 31//7 32//1 33//3
